<svg width="186" height="186" viewBox="0 0 186 186" fill="none" xmlns="http://www.w3.org/2000/svg">
<path fill-rule="evenodd" clip-rule="evenodd" d="M70.7195 0.4939C60.6562 16.5429 58.077 39.0602 60.9532 62.2872C65.2549 96.9908 81.7095 133.266 103.132 151.738C103.578 152.113 104.247 152.062 104.622 151.626C105.007 151.18 104.957 150.521 104.511 150.136C83.4228 131.948 67.2826 96.2 63.0549 62.0236C60.2395 39.3238 62.6696 17.3033 72.514 1.61924C72.8283 1.12246 72.6762 0.473668 72.1795 0.159378C71.6928 -0.144773 71.0338 -0.00288003 70.7195 0.4939Z" fill="black"/>
<path fill-rule="evenodd" clip-rule="evenodd" d="M121.323 179.965C109.461 168.631 100.195 157.478 84.0139 150.939C83.4664 150.726 82.848 150.98 82.6351 151.527C82.4121 152.064 82.6757 152.683 83.213 152.896C101.016 160.094 110.282 173.01 124.121 185.46C124.872 186.129 125.5 185.714 125.642 185.602C125.855 185.44 126.139 185.116 126.037 184.548C126.017 184.436 125.946 184.223 125.804 183.939C125.52 183.402 124.851 182.358 124.598 181.861C123.878 180.421 123.199 178.972 122.479 177.532C120.421 173.416 118.413 169.29 116.71 165.021C110.313 149.064 104.98 136.056 111.59 119.53C111.813 118.983 111.55 118.375 111.002 118.152C110.465 117.939 109.846 118.202 109.634 118.74C102.79 135.833 108.133 149.307 114.743 165.812C116.477 170.131 118.505 174.318 120.583 178.475C120.837 178.972 121.08 179.468 121.323 179.965Z" fill="black"/>
</svg>
