<svg width="187" height="187" viewBox="0 0 187 187" fill="none" xmlns="http://www.w3.org/2000/svg">
<g clip-path="url(#clip0_307_320)">
<path fill-rule="evenodd" clip-rule="evenodd" d="M87.5277 134.471C108.631 145.907 132.767 154.306 156.697 152.661C165.404 152.063 173.464 149.552 181.739 147.056C182.319 146.882 182.65 146.267 182.476 145.683C182.299 145.1 181.683 144.769 181.1 144.946C172.985 147.393 165.085 149.874 156.546 150.461C132.956 152.083 109.177 143.73 88.3927 132.434L88.5407 132.1C90.1573 128.481 89.156 123.199 86.5148 117.655C82.7301 109.708 75.6832 101.17 69.3415 96.4532C66.4914 94.3345 63.7603 92.9878 61.508 92.7063C59.7521 92.4857 58.2458 92.8804 57.0819 93.9311C54.6033 96.1717 54.6903 99.9941 56.6552 104.426C60.7621 113.696 72.8243 125.904 79.3663 129.819C81.4095 131.041 83.4877 132.242 85.5977 133.412C85.3307 134.056 85.0665 134.686 84.7821 135.287C83.9665 136.996 82.9652 138.491 81.0351 139.516C78.0254 141.109 74.4178 141.385 70.726 140.973C64.9648 140.325 59.0004 137.983 54.6091 135.972C30.1537 124.769 18.0422 105.337 11.5467 85.8306C4.99022 66.1293 4.13112 46.3351 2.18944 34.6589C2.09076 34.0581 1.52189 33.6547 0.921104 33.7534C0.320314 33.8521 -0.0860165 34.4209 0.0155664 35.0217C1.96886 46.7734 2.85406 66.6953 9.45694 86.5272C16.1208 106.553 28.5865 126.475 53.689 137.977C58.2632 140.073 64.48 142.491 70.4792 143.164C74.6325 143.628 78.6813 143.257 82.0684 141.463C85.1072 139.852 86.3145 137.339 87.5277 134.471ZM86.4539 131.366L86.5293 131.2C87.9428 128.037 86.8341 123.451 84.5238 118.604C80.8871 110.968 74.1217 102.757 68.0238 98.2237C65.9341 96.668 63.9344 95.5506 62.1756 95.0804C60.7244 94.6944 59.4648 94.7496 58.5621 95.568C57.7059 96.3372 57.3663 97.3965 57.3808 98.63C57.3953 100.078 57.8772 101.741 58.6695 103.532C62.6167 112.439 74.2117 124.165 80.4982 127.927C82.4515 129.093 84.4367 130.243 86.4539 131.366Z" fill="black"/>
<path fill-rule="evenodd" clip-rule="evenodd" d="M184.536 143.644C184.441 144.117 184.118 144.712 183.764 145.347C182.923 146.862 181.724 148.476 181.19 149.26C180.848 149.765 180.981 150.45 181.483 150.792C181.988 151.135 182.673 151.004 183.016 150.499C183.669 149.538 185.262 147.385 186.118 145.6C186.577 144.642 186.815 143.757 186.763 143.121C186.675 142.039 185.819 141.362 184.121 141.403C182.113 141.452 178.383 142.46 175.26 141.249C174.694 141.029 174.053 141.313 173.835 141.879C173.615 142.448 173.896 143.086 174.465 143.307C177.443 144.459 180.914 143.905 183.251 143.673C183.695 143.629 184.223 143.635 184.536 143.644Z" fill="black"/>
</g>
<defs>
<clipPath id="clip0_307_320">
<rect width="187" height="187" fill="white"/>
</clipPath>
</defs>
</svg>
