<svg width="89" height="80" viewBox="0 0 89 80" fill="none" xmlns="http://www.w3.org/2000/svg">
<path d="M80 40C80 62.09 62.09 80 40 80C17.91 80 0 62.09 0 40C0 17.91 17.91 0 40 0C62.09 0 80 17.91 80 40Z" fill="#3F78E0"/>
<path d="M79.8709 0.74902L30.3164 52.1719L38.4517 60.0116L88.0062 8.58876L79.8709 0.74902Z" fill="#2B2B2B"/>
<path d="M68.7924 12.2344L30.3164 52.1724L38.4504 60.0104L75.5004 21.5544C73.7164 18.1284 71.4504 14.9904 68.7924 12.2344Z" fill="white"/>
<path d="M21.9465 28.5347L14.125 36.6875L38.4535 60.0275L46.2751 51.8747L21.9465 28.5347Z" fill="white"/>
</svg>
